<svg width="30" height="49" viewBox="0 0 30 49" fill="none" xmlns="http://www.w3.org/2000/svg">
<path d="M23.4321 26.5144C23.1109 27.2261 22.7661 27.8999 22.3976 28.5368C22.037 30.3597 21.0978 32.3019 19.3993 34.2525C15.5747 38.6442 8.64224 38.7954 4.19214 36.9292C8.03933 43.1306 14.5328 48.212 14.5328 48.212C14.5328 48.212 29.0598 36.8441 29.0598 25.2214C29.0598 21.892 27.9405 18.8256 26.0574 16.3772C25.6158 20.2365 24.7344 23.6428 23.4321 26.5144Z" fill="#1572D3"/>
<mask id="mask0_5_784" style="mask-type:luminance" maskUnits="userSpaceOnUse" x="0" y="9" width="26" height="27">
<path d="M0 9.10718H25.4309V35.0596H0V9.10718Z" fill="white"/>
</mask>
<g mask="url(#mask0_5_784)">
<path d="M11.1599 34.9974C13.445 34.9353 15.5814 34.1831 17.4675 32.7838C18.4778 32.0358 19.4165 31.1027 20.2682 29.9895C21.1199 28.8753 21.8848 27.5815 22.5477 26.113C23.8694 23.1984 24.788 19.5942 25.1887 15.3487C25.3691 13.4174 25.4442 11.3527 25.4 9.15869C24.9575 10.8477 24.4699 12.5299 23.9363 14.1496C23.033 16.8798 21.9913 19.4405 20.7946 21.5854C18.9431 24.9092 16.7181 27.2367 14.0596 27.6643C7.35546 28.7388 6.94135 18.7618 14.104 18.3612C16.2947 18.2398 18.5004 19.1782 20.1129 20.8084C21.1327 18.922 22.1078 16.5817 23.0142 13.8443C23.0504 13.7332 23.0876 13.6211 23.1239 13.5081C20.7174 11.7401 17.7475 10.6965 14.533 10.6965C6.50957 10.6965 0.0065918 17.1998 0.0065918 25.2213C0.0065918 25.3257 0.00659181 25.8649 0.0375163 26.149C0.707624 32.2563 5.47511 35.1576 11.1599 34.9974Z" fill="#1572D3"/>
</g>
<mask id="mask1_5_784" style="mask-type:luminance" maskUnits="userSpaceOnUse" x="20" y="0" width="10" height="12">
<path d="M20.3713 0H30V11.0119H20.3713V0Z" fill="white"/>
</mask>
<g mask="url(#mask1_5_784)">
<path d="M25.5357 5.14253L26.6843 10.7768L30.0058 10.9689L25.8328 0L20.4238 10.4148L23.7453 10.6069L25.5357 5.14253Z" fill="#1572D3"/>
</g>
</svg>
